<svg id="visual" viewBox="0 0 960 540" width="960" height="540" xmlns="http://www.w3.org/2000/svg" xmlns:xlink="http://www.w3.org/1999/xlink" version="1.1"><rect x="0" y="0" width="960" height="540" fill="#000"></rect><defs><linearGradient id="grad1_0" x1="43.8%" y1="0%" x2="100%" y2="100%"><stop offset="14.444444444444446%" stop-color="#000000" stop-opacity="1"></stop><stop offset="85.55555555555554%" stop-color="#000000" stop-opacity="1"></stop></linearGradient></defs><defs><linearGradient id="grad2_0" x1="0%" y1="0%" x2="56.3%" y2="100%"><stop offset="14.444444444444446%" stop-color="#000000" stop-opacity="1"></stop><stop offset="85.55555555555554%" stop-color="#000000" stop-opacity="1"></stop></linearGradient></defs><g transform="translate(960, 0)"><path d="M0 216C-10.1 205 -20.2 194 -29.7 187.7C-39.3 181.3 -48.3 179.5 -57.5 176.9C-66.6 174.3 -76 170.9 -85.4 167.5C-94.7 164.1 -104.2 160.8 -114.6 157.8C-125 154.8 -136.4 152.1 -147.1 147.1C-157.7 142 -167.6 134.6 -169.9 123.4C-172.2 112.3 -166.9 97.5 -172.9 88.1C-178.8 78.7 -196 74.7 -204.5 66.4C-213 58.2 -212.9 45.6 -213.3 33.8C-213.8 22 -214.9 11 -216 0L0 0Z" fill="#8083FF"></path></g><g transform="translate(0, 540)"><path d="M0 -216C10.7 -209.5 21.5 -202.9 31.4 -198.5C41.4 -194.1 50.7 -191.9 62.7 -193.1C74.8 -194.2 89.6 -198.6 98.1 -192.5C106.5 -186.3 108.4 -169.4 118.1 -162.6C127.8 -155.8 145.3 -159 150.6 -150.6C156 -142.2 149.3 -122.3 153.7 -111.7C158.2 -101.1 173.8 -99.7 182.7 -93.1C191.5 -86.4 193.6 -74.4 195 -63.3C196.4 -52.3 197.1 -42.2 200.5 -31.8C203.9 -21.4 209.9 -10.7 216 0L0 0Z" fill="#8083FF"></path></g></svg>